<svg width="36" height="33" viewBox="0 0 36 33" fill="none" xmlns="http://www.w3.org/2000/svg">
<path d="M9.66695 25.4077C8.42503 26.4427 7.13137 26.9158 5.78596 26.8271C4.44055 26.7384 3.26516 26.28 2.2598 25.4521C1.25444 24.6241 0.566949 23.5375 0.197331 22.1921C-0.172287 20.8466 0.0716604 19.4643 0.929174 18.0449L4.25574 12.545C3.5165 11.8945 2.9325 11.1109 2.50375 10.1943C2.07499 9.2776 1.86061 8.28702 1.86061 7.22252C1.86061 5.27094 2.55549 3.60026 3.94526 2.2105C5.33502 0.820736 7.0057 0.125854 8.95728 0.125854C10.9089 0.125854 12.5795 0.820736 13.9693 2.2105C15.3591 3.60026 16.0539 5.27094 16.0539 7.22252C16.0539 9.1741 15.3591 10.8448 13.9693 12.2345C12.5795 13.6243 10.9089 14.3192 8.95728 14.3192C8.69115 14.3192 8.42503 14.3044 8.1589 14.2748C7.89278 14.2453 7.64144 14.2009 7.40488 14.1418L3.98961 19.9078C3.66435 20.4401 3.56086 20.9649 3.67913 21.4824C3.79741 21.9999 4.04875 22.4212 4.43315 22.7465C4.81756 23.0717 5.27588 23.2566 5.80813 23.3009C6.34038 23.3453 6.85785 23.1604 7.36053 22.7465L25.9893 6.73463C27.2312 5.69969 28.5323 5.23398 29.8924 5.33747C31.2526 5.44096 32.4354 5.90668 33.4408 6.73463C34.4461 7.56257 35.1262 8.64925 35.4811 9.99466C35.8359 11.3401 35.5846 12.7224 34.7271 14.1418L31.4005 19.6417C32.1397 20.2922 32.7237 21.0758 33.1525 21.9925C33.5812 22.9091 33.7956 23.8997 33.7956 24.9642C33.7956 26.9158 33.1007 28.5864 31.711 29.9762C30.3212 31.366 28.6505 32.0609 26.6989 32.0609C24.7474 32.0609 23.0767 31.366 21.6869 29.9762C20.2972 28.5864 19.6023 26.9158 19.6023 24.9642C19.6023 23.0126 20.2972 21.3419 21.6869 19.9522C23.0767 18.5624 24.7474 17.8675 26.6989 17.8675C26.9651 17.8675 27.2238 17.8823 27.4751 17.9119C27.7265 17.9414 27.9704 17.9858 28.207 18.0449L31.6666 12.2789C31.9919 11.7466 32.0954 11.2218 31.9771 10.7043C31.8588 10.1869 31.6075 9.76549 31.2231 9.44023C30.8387 9.11497 30.3803 8.93016 29.8481 8.8858C29.3158 8.84145 28.7984 9.02626 28.2957 9.44023L9.66695 25.4077ZM8.95728 10.7709C9.93307 10.7709 10.7684 10.4234 11.4633 9.72853C12.1582 9.03365 12.5056 8.19831 12.5056 7.22252C12.5056 6.24673 12.1582 5.41139 11.4633 4.71651C10.7684 4.02163 9.93307 3.67419 8.95728 3.67419C7.98149 3.67419 7.14615 4.02163 6.45127 4.71651C5.75639 5.41139 5.40895 6.24673 5.40895 7.22252C5.40895 8.19831 5.75639 9.03365 6.45127 9.72853C7.14615 10.4234 7.98149 10.7709 8.95728 10.7709ZM26.6989 28.5125C27.6747 28.5125 28.5101 28.1651 29.205 27.4702C29.8998 26.7753 30.2473 25.94 30.2473 24.9642C30.2473 23.9884 29.8998 23.1531 29.205 22.4582C28.5101 21.7633 27.6747 21.4159 26.6989 21.4159C25.7232 21.4159 24.8878 21.7633 24.1929 22.4582C23.4981 23.1531 23.1506 23.9884 23.1506 24.9642C23.1506 25.94 23.4981 26.7753 24.1929 27.4702C24.8878 28.1651 25.7232 28.5125 26.6989 28.5125Z" fill="#00AB80"/>
</svg>
