<svg width="14" height="17" viewBox="0 0 14 17" fill="none" xmlns="http://www.w3.org/2000/svg">
<path d="M6.89054 13.7374C6.14539 13.7374 5.43351 13.8538 4.75489 14.0867C4.07627 14.3195 3.45753 14.6688 2.89866 15.1345V15.3341H10.8824V15.1345C10.3236 14.6688 9.70481 14.3195 9.02619 14.0867C8.34757 13.8538 7.63569 13.7374 6.89054 13.7374ZM6.89054 12.1406C7.80867 12.1406 8.66692 12.2803 9.4653 12.5598C10.2637 12.8392 11.0022 13.2317 11.6808 13.7374V2.56013H2.10029V13.7374C2.77891 13.2317 3.51741 12.8392 4.31578 12.5598C5.11416 12.2803 5.97241 12.1406 6.89054 12.1406ZM6.89054 8.94713C6.55788 8.94713 6.27513 8.8307 6.04227 8.59784C5.80941 8.36498 5.69298 8.08222 5.69298 7.74957C5.69298 7.41691 5.80941 7.13415 6.04227 6.90129C6.27513 6.66843 6.55788 6.552 6.89054 6.552C7.2232 6.552 7.50595 6.66843 7.73881 6.90129C7.97167 7.13415 8.0881 7.41691 8.0881 7.74957C8.0881 8.08222 7.97167 8.36498 7.73881 8.59784C7.50595 8.8307 7.2232 8.94713 6.89054 8.94713ZM2.10029 16.9309C1.66118 16.9309 1.28528 16.7745 0.972585 16.4618C0.659888 16.1491 0.50354 15.7732 0.50354 15.3341V2.56013C0.50354 2.12102 0.659888 1.74512 0.972585 1.43242C1.28528 1.11973 1.66118 0.963379 2.10029 0.963379H11.6808C12.1199 0.963379 12.4958 1.11973 12.8085 1.43242C13.1212 1.74512 13.2775 2.12102 13.2775 2.56013V15.3341C13.2775 15.7732 13.1212 16.1491 12.8085 16.4618C12.4958 16.7745 12.1199 16.9309 11.6808 16.9309H2.10029ZM6.89054 10.5439C7.6623 10.5439 8.32096 10.2711 8.86652 9.72554C9.41208 9.17999 9.68485 8.52133 9.68485 7.74957C9.68485 6.9778 9.41208 6.31914 8.86652 5.77359C8.32096 5.22803 7.6623 4.95525 6.89054 4.95525C6.11878 4.95525 5.46012 5.22803 4.91456 5.77359C4.36901 6.31914 4.09623 6.9778 4.09623 7.74957C4.09623 8.52133 4.36901 9.17999 4.91456 9.72554C5.46012 10.2711 6.11878 10.5439 6.89054 10.5439Z" fill="#231F20"/>
</svg>
