<svg width="34" height="21" viewBox="0 0 34 21" fill="none" xmlns="http://www.w3.org/2000/svg">
<path d="M2.91819 20.073L0.5896 17.7444L9.40499 8.92904C10.3752 7.95879 11.5534 7.47367 12.9395 7.47367C14.3255 7.47367 15.5037 7.95879 16.4739 8.92904L18.3867 10.8418C18.7194 11.1745 19.1144 11.3408 19.5718 11.3408C20.0292 11.3408 20.4242 11.1745 20.7569 10.8418L28.1585 3.44021H23.8755V0.113647H33.8552V10.0933H30.5287V5.81039L23.0855 13.212C22.1152 14.1822 20.9371 14.6674 19.551 14.6674C18.1649 14.6674 16.9868 14.1822 16.0165 13.212L14.0622 11.2576C13.7572 10.9527 13.3691 10.8002 12.8979 10.8002C12.4266 10.8002 12.0385 10.9527 11.7336 11.2576L2.91819 20.073Z" fill="#00AB80"/>
</svg>
